HIERARCHY
ROOT hip
{
	OFFSET 0.000000 0.000000 0.000000
	CHANNELS 6 Xposition Yposition Zposition Xrotation Zrotation Yrotation 
	JOINT abdomen
	{
		OFFSET 0.000000 3.422050 0.000000
		CHANNELS 3 Xrotation Zrotation Yrotation 
		JOINT chest
		{
			OFFSET 0.000000 8.486693 -0.684411
			CHANNELS 3 Xrotation Zrotation Yrotation 
			JOINT neck
			{
				OFFSET 0.000000 10.266162 -0.273764
				CHANNELS 3 Xrotation Zrotation Yrotation 
				JOINT head
				{
					OFFSET 0.000000 3.148285 0.000000
					CHANNELS 3 Xrotation Zrotation Yrotation 
					End Site
					{
						OFFSET 0.000000 3.148289 0.000000
					}
				}
			}
			JOINT lCollar
			{
				OFFSET 3.422053 6.707223 -0.821293
				CHANNELS 3 Yrotation Zrotation Xrotation 
				JOINT lShldr
				{
					OFFSET 3.285171 0.000000 0.000000
					CHANNELS 3 Zrotation Yrotation Xrotation 
					JOINT lForeArm
					{
						OFFSET 10.129278 0.000000 0.000000
						CHANNELS 3 Yrotation Zrotation Xrotation 
						JOINT lHand
						{
							OFFSET 8.486692 0.000000 0.000000
							CHANNELS 3 Zrotation Yrotation Xrotation 
							End Site
							{
								OFFSET 4.106464 0.000000 0.000000
							}
						}
					}
				}
			}
			JOINT rCollar
			{
				OFFSET -3.558935 6.707223 -0.821293
				CHANNELS 3 Yrotation Zrotation Xrotation 
				JOINT rShldr
				{
					OFFSET -3.148289 0.000000 0.000000
					CHANNELS 3 Zrotation Yrotation Xrotation 
					JOINT rForeArm
					{
						OFFSET -10.266159 0.000000 0.000000
						CHANNELS 3 Yrotation Zrotation Xrotation 
						JOINT rHand
						{
							OFFSET -8.349810 0.000000 0.000000
							CHANNELS 3 Zrotation Yrotation Xrotation 
							End Site
							{
								OFFSET -4.106464 0.000000 0.000000
							}
						}
					}
				}
			}
		}
	}
	JOINT lThigh
	{
		OFFSET 5.338403 -1.642589 1.368821
		CHANNELS 3 Xrotation Zrotation Yrotation 
		JOINT lShin
		{
			OFFSET -2.053232 -20.121670 0.000000
			CHANNELS 3 Xrotation Zrotation Yrotation 
			JOINT lFoot
			{
				OFFSET 0.000000 -19.300380 -1.231939
				CHANNELS 3 Xrotation Yrotation Zrotation 
				End Site
				{
					OFFSET 0.000000 -2.463878 4.653993
				}
			}
		}
	}
	JOINT rThigh
	{
		OFFSET -5.338403 -1.642589 1.368821
		CHANNELS 3 Xrotation Zrotation Yrotation 
		JOINT rShin
		{
			OFFSET 2.053232 -20.121670 0.000000
			CHANNELS 3 Xrotation Zrotation Yrotation 
			JOINT rFoot
			{
				OFFSET 0.000000 -19.300380 -1.231939
				CHANNELS 3 Xrotation Yrotation Zrotation 
				End Site
				{
					OFFSET 0.000000 -2.463878 4.653993
				}
			}
		}
	}
}
MOTION
Frames: 15
Frame Time: 0.033264
19.995884 13.140280 -1.264573 -94.004440 0.000000 0.000000 -12.504774 -0.070640 -0.050954 16.376183 -9.172694 -0.644882 -3.182345 -18.762526 1.028824 -7.939217 -1.203618 1.210917 -0.148874 -0.113843 1.962844 21.785818 30.306076 58.873745 -30.696285 0.221109 41.061298 1.024944 3.718381 -6.118808 -14.471960 -5.297771 1.131990 -1.924320 -2.139952 53.267944 3.400111 -0.221679 40.962337 -6.171895 20.087568 -4.781371 -32.710194 59.169334 -0.599782 96.755264 12.789714 -8.949797 4.315814 0.787959 -2.087454 -32.384430 -59.598995 -1.128685 98.323296 -12.920393 8.598310 2.776343 -0.645786 0.345800 
19.995884 13.170918 -1.264573 -94.004440 0.000000 0.000000 -13.081654 -0.070584 -0.050985 17.054308 -9.172634 -0.644880 -3.658433 -18.762512 1.028777 -7.538570 -1.203674 1.210974 0.256046 0.256238 2.007069 21.546034 29.929596 58.731724 -31.321222 0.291399 41.078381 0.604951 3.927880 -6.251740 -14.471960 -5.297771 1.131990 -1.924320 -2.139952 53.267944 3.400111 -0.221679 40.962337 -6.129744 20.159719 -4.894612 -32.593231 59.329777 -0.401732 96.755264 12.789714 -8.949797 4.289694 0.672443 -1.955706 -32.275253 -59.854122 -1.406503 98.323296 -12.920393 8.598310 2.757894 -0.456075 0.116063 
19.995884 13.201556 -1.264573 -94.004440 0.000000 0.000000 -13.658469 -0.070528 -0.051016 17.732336 -9.172572 -0.644877 -4.134488 -18.762497 1.028730 -7.137946 -1.203731 1.211030 0.660663 0.626588 2.048676 21.308231 29.552628 58.592049 -31.946119 0.361492 41.096245 0.184395 4.136384 -6.386233 -14.471960 -5.297771 1.131990 -1.924320 -2.139952 53.267944 3.400111 -0.221679 40.962337 -6.087726 20.231947 -5.007846 -32.474609 59.489990 -0.202102 96.755264 12.789714 -8.949797 4.263842 0.556869 -1.824016 -32.162762 -60.108963 -1.687423 98.323296 -12.920393 8.598310 2.740206 -0.266297 -0.113601 
19.995884 13.232195 -1.264573 -94.004440 0.000000 0.000000 -14.235205 -0.070472 -0.051049 18.410221 -9.172509 -0.644874 -4.610495 -18.762487 1.028683 -6.737348 -1.203788 1.211086 1.064993 0.997172 2.087665 21.072384 29.175192 58.454700 -32.570927 0.431371 41.114853 -0.236721 4.343877 -6.522281 -14.471960 -5.297771 1.131990 -1.924320 -2.139952 53.267944 3.400111 -0.221679 40.962337 -6.045842 20.304253 -5.121078 -32.354324 59.649998 -0.000871 96.755264 12.789714 -8.949797 4.238255 0.441237 -1.692381 -32.046867 -60.363518 -1.971543 98.323296 -12.920393 8.598310 2.723281 -0.076458 -0.343195 
19.995884 13.262833 -1.264573 -94.004440 0.000000 0.000000 -14.811820 -0.070417 -0.051081 19.087914 -9.172448 -0.644870 -5.086434 -18.762472 1.028636 -6.336792 -1.203846 1.211141 1.469049 1.367952 2.124036 20.838453 28.797308 58.319645 -33.195610 0.501028 41.134228 -0.658387 4.550337 -6.659871 -14.471960 -5.297771 1.131990 -1.924320 -2.139952 53.267944 3.400111 -0.221679 40.962337 -6.004089 20.376633 -5.234303 -32.232365 59.809814 0.201996 96.755264 12.789714 -8.949797 4.212934 0.325549 -1.560803 -31.927502 -60.617771 -2.258931 98.323296 -12.920393 8.598310 2.707117 0.113437 -0.572721 
19.995884 13.293470 -1.264573 -94.004440 0.000000 0.000000 -15.388288 -0.070362 -0.051114 19.765375 -9.172389 -0.644865 -5.562292 -18.762461 1.028588 -5.936284 -1.203904 1.211196 1.872846 1.738893 2.157788 20.606413 28.419008 58.186848 -33.820141 0.570447 41.154354 -1.080600 4.755746 -6.798999 -14.471960 -5.297771 1.131990 -1.924320 -2.139952 53.267944 3.400111 -0.221679 40.962337 -5.962472 20.449093 -5.347524 -32.108665 59.969368 0.406510 96.755264 12.789714 -8.949797 4.187881 0.209806 -1.429280 -31.804579 -60.871700 -2.549664 98.323296 -12.920393 8.598310 2.691713 0.303382 -0.802180 
19.995884 13.324109 -1.264573 -94.004440 0.000000 0.000000 -15.964582 -0.070308 -0.051148 20.442547 -9.172328 -0.644859 -6.038050 -18.762449 1.028540 -5.535833 -1.203963 1.211251 2.276403 2.109962 2.188923 20.376223 28.040300 58.056274 -34.444485 0.639619 41.175232 -1.503352 4.960084 -6.939657 -14.471960 -5.297771 1.131990 -1.924320 -2.139952 53.267944 3.400111 -0.221679 40.962337 -5.920991 20.521631 -5.460741 -31.983236 60.128689 0.612697 96.755264 12.789714 -8.949797 4.163093 0.094008 -1.297811 -31.677998 -61.125275 -2.843833 98.323296 -12.920393 8.598310 2.677073 0.493373 -1.031575 
19.995884 13.354747 -1.264573 -94.004440 0.000000 0.000000 -16.540670 -0.070253 -0.051183 21.119389 -9.172264 -0.644853 -6.513696 -18.762440 1.028493 -5.135453 -1.204022 1.211305 2.679731 2.481120 2.217441 20.147858 27.661211 57.927895 -35.068584 0.708530 41.196846 -1.926635 5.163331 -7.081832 -14.471960 -5.297771 1.131990 -1.924320 -2.139952 53.267944 3.400111 -0.221679 40.962337 -5.879641 20.594234 -5.573950 -31.856054 60.287807 0.820586 96.755264 12.789714 -8.949797 4.138572 -0.021841 -1.166398 -31.547729 -61.378559 -3.141521 98.323296 -12.920393 8.598310 2.663194 0.683402 -1.260907 
19.995884 13.385386 -1.264573 -94.004440 0.000000 0.000000 -17.116529 -0.070200 -0.051217 21.795855 -9.172206 -0.644846 -6.989208 -18.762426 1.028445 -4.735148 -1.204081 1.211359 3.082848 2.852333 2.243341 19.921286 27.281763 57.801701 -35.692432 0.777168 41.219200 -2.350442 5.365469 -7.225517 -14.471960 -5.297771 1.131990 -1.924320 -2.139952 53.267944 3.400111 -0.221679 40.962337 -5.838428 20.666920 -5.687156 -31.727087 60.446671 1.030186 96.755264 12.789714 -8.949797 4.114318 -0.137743 -1.035039 -31.413626 -61.631454 -3.442811 98.323296 -12.920393 8.598310 2.650075 0.873465 -1.490179 
19.995884 13.416023 -1.264573 -94.004440 0.000000 0.000000 -17.692123 -0.070146 -0.051253 22.471886 -9.172143 -0.644838 -7.464575 -18.762417 1.028397 -4.334935 -1.204141 1.211412 3.485769 3.223564 2.266625 19.696474 26.901970 57.677643 -36.315971 0.845522 41.242290 -2.774766 5.566480 -7.370704 -14.471960 -5.297771 1.131990 -1.924320 -2.139952 53.267944 3.400111 -0.221679 40.962337 -5.797350 20.739679 -5.800357 -31.596292 60.605274 1.241542 96.755264 12.789714 -8.949797 4.090331 -0.253694 -0.903734 -31.275593 -61.883934 -3.747799 98.323296 -12.920393 8.598310 2.637719 1.063555 -1.719392 
19.995884 13.446661 -1.264573 -94.004440 0.000000 0.000000 -18.267427 -0.070093 -0.051289 23.147457 -9.172084 -0.644830 -7.939775 -18.762405 1.028349 -3.934817 -1.204201 1.211465 3.888508 3.594779 2.287292 19.473394 26.521854 57.555695 -36.939175 0.913580 41.266106 -3.199598 5.766342 -7.517379 -14.471960 -5.297771 1.131990 -1.924320 -2.139952 53.267944 3.400111 -0.221679 40.962337 -5.756406 20.812510 -5.913551 -31.463669 60.763638 1.454670 96.755264 12.789714 -8.949797 4.066609 -0.369695 -0.772482 -31.133587 -62.136063 -4.056579 98.323296 -12.920393 8.598310 2.626125 1.253667 -1.948548 
19.995884 13.477300 -1.264573 -94.004440 0.000000 0.000000 -18.842415 -0.070041 -0.051325 23.822504 -9.172023 -0.644821 -8.414798 -18.762396 1.028301 -3.534806 -1.204261 1.211517 4.291082 3.965941 2.305344 19.252016 26.141443 57.435848 -37.562016 0.981331 41.290653 -3.624932 5.965041 -7.665538 -14.471960 -5.297771 1.131990 -1.924320 -2.139952 53.267944 3.400111 -0.221679 40.962337 -5.715598 20.885406 -6.026741 -31.329189 60.921764 1.669596 96.755264 12.789714 -8.949797 4.043156 -0.485744 -0.641283 -30.987469 -62.387760 -4.369242 98.323296 -12.920393 8.598310 2.615292 1.443797 -2.177650 
19.995884 13.507937 -1.264573 -94.004440 0.000000 0.000000 -19.417046 -0.069988 -0.051362 24.496990 -9.171964 -0.644811 -8.889624 -18.762386 1.028254 -3.134914 -1.204322 1.211569 4.693506 4.337018 2.320781 19.032310 25.760748 57.318047 -38.184444 1.048761 41.315903 -4.050758 6.162555 -7.815166 -14.471960 -5.297771 1.131990 -1.924320 -2.139952 53.267944 3.400111 -0.221679 40.962337 -5.674928 20.958384 -6.139925 -31.192833 61.079624 1.886336 96.755264 12.789714 -8.949797 4.019968 -0.601839 -0.510137 -30.837177 -62.639072 -4.685892 98.323296 -12.920393 8.598310 2.605219 1.633937 -2.406699 
19.995884 13.538576 -1.264573 -94.004440 0.000000 0.000000 -19.991310 -0.069936 -0.051399 25.170858 -9.171902 -0.644800 -9.364236 -18.762375 1.028205 -2.735147 -1.204383 1.211621 5.095795 4.707970 2.333603 18.814247 25.379784 57.202278 -38.806438 1.115861 41.341881 -4.477069 6.358871 -7.966257 -14.471960 -5.297771 1.131990 -1.924320 -2.139952 53.267944 3.400111 -0.221679 40.962337 -5.634393 21.031429 -6.253105 -31.054556 61.237209 2.104933 96.755264 12.789714 -8.949797 3.997047 -0.717980 -0.379042 -30.682562 -62.889896 -5.006630 98.323296 -12.920393 8.598310 2.595908 1.824082 -2.635697 
19.995884 13.569214 -1.264573 -94.004440 0.000000 0.000000 -20.565161 -0.069885 -0.051437 25.844076 -9.171843 -0.644789 -9.838618 -18.762367 1.028157 -2.335518 -1.204444 1.211672 5.497965 5.078765 2.343812 18.597795 24.998577 57.088505 -39.427937 1.182621 41.368546 -4.903855 6.553966 -8.118795 -14.471960 -5.297771 1.131990 -1.924320 -2.139952 53.267944 3.400111 -0.221679 40.962337 -5.593996 21.104549 -6.366279 -30.914341 61.394543 2.325407 96.755264 12.789714 -8.949797 3.974394 -0.834165 -0.248000 -30.523563 -63.140289 -5.331561 98.323296 -12.920393 8.598310 2.587358 2.014226 -2.864646 
